<?xml version="1.0" standalone="no"?><!DOCTYPE svg PUBLIC "-//W3C//DTD SVG 1.1//EN" "http://www.w3.org/Graphics/SVG/1.1/DTD/svg11.dtd"><svg t="1614838804140" class="icon" viewBox="0 0 1024 1024" version="1.1" xmlns="http://www.w3.org/2000/svg" p-id="26150" xmlns:xlink="http://www.w3.org/1999/xlink" width="200" height="200"><defs><style type="text/css"></style></defs><path d="M924.8 337.6c-22.6-53.4-54.9-101.3-96-142.4-41.1-41.1-89-73.4-142.4-96C631.1 75.8 572.5 64 512 64S392.9 75.8 337.6 99.2c-53.4 22.6-101.3 54.9-142.4 96-41.1 41.1-73.4 89-96 142.4C75.8 392.9 64 451.5 64 512s11.8 119.1 35.2 174.4c22.6 53.4 54.9 101.3 96 142.4 41.1 41.1 89 73.4 142.4 96C392.9 948.2 451.5 960 512 960s119.1-11.8 174.4-35.2c53.4-22.6 101.3-54.9 142.4-96 41.1-41.1 73.4-89 96-142.4C948.2 631.1 960 572.5 960 512s-11.8-119.1-35.2-174.4zM783.5 783.5c-64.9 64.9-149 103.7-239.5 111.2v-85c0-17.7-14.3-32-32-32s-32 14.3-32 32v85c-90.5-7.4-174.6-46.2-239.5-111.2-64.9-64.9-103.7-149-111.2-239.5h85c17.7 0 32-14.3 32-32s-14.3-32-32-32h-85c7.4-90.5 46.2-174.6 111.2-239.5 64.9-64.9 149-103.7 239.5-111.2v85c0 17.7 14.3 32 32 32s32-14.3 32-32v-85c90.5 7.4 174.6 46.2 239.5 111.2 64.9 64.9 103.7 149 111.2 239.5h-85c-17.7 0-32 14.3-32 32s14.3 32 32 32h85c-7.4 90.5-46.2 174.6-111.2 239.5z" p-id="26151"></path><path d="M512 512m-79.7 0a79.7 79.7 0 1 0 159.4 0 79.7 79.7 0 1 0-159.4 0Z" p-id="26152"></path></svg>