<?xml version="1.0" standalone="no"?><!DOCTYPE svg PUBLIC "-//W3C//DTD SVG 1.1//EN" "http://www.w3.org/Graphics/SVG/1.1/DTD/svg11.dtd"><svg t="1600918175098" class="icon" viewBox="0 0 1024 1024" version="1.1" xmlns="http://www.w3.org/2000/svg" p-id="32163" xmlns:xlink="http://www.w3.org/1999/xlink" width="16" height="16"><defs><style type="text/css"></style></defs><path d="M924.8 337.6c-22.6-53.4-54.9-101.3-96-142.4-41.1-41.1-89-73.4-142.4-96C631.1 75.9 572.5 64 512 64S392.9 75.9 337.6 99.2c-53.4 22.6-101.3 54.9-142.4 96-41.1 41.1-73.4 89-96 142.4C75.9 392.9 64 451.5 64 512s11.9 119.1 35.2 174.4c22.6 53.4 54.9 101.3 96 142.4 41.1 41.1 89 73.4 142.4 96C392.9 948.1 451.5 960 512 960s119.1-11.9 174.4-35.2c53.4-22.6 101.3-54.9 142.4-96s73.4-89 96-142.4c23.4-55.3 35.2-114 35.2-174.4 0-60.5-11.9-119.1-35.2-174.4zM512 192c85.5 0 165.8 33.3 226.3 93.7 45.1 45.1 75 101.2 87.4 162.3H198.4c12.3-61.1 42.3-117.2 87.4-162.3C346.2 225.3 426.5 192 512 192z m0 640c-85.5 0-165.8-33.3-226.3-93.7-45.1-45.1-75-101.2-87.4-162.3h627.3c-12.3 61.1-42.3 117.2-87.4 162.3C677.8 798.7 597.5 832 512 832z" p-id="32164"></path></svg>